<svg id="about-logo-icon" xmlns="http://www.w3.org/2000/svg" width="658.702" height="589.595" viewBox="0 0 658.702 589.595">
  <path id="Path_1" data-name="Path 1" d="M273.3,216.978c.011,8.634-6.1,19.239-13.581,23.563L202.35,273.726c-7.482,4.327-19.73,4.34-27.222.034l-57.455-33.036c-7.492-4.309-13.631-14.9-13.642-23.532l-.085-66.218c-.01-8.636,6.1-19.238,13.58-23.566L174.9,94.226c7.481-4.328,19.73-4.343,27.222-.035l57.455,33.037c7.492,4.306,13.631,14.895,13.641,23.527Z" transform="translate(141.533 110.669)" fill="#1a1818"/>
  <g id="Group_3" data-name="Group 3" transform="translate(112.826 0.242)">
    <g id="Group_2" data-name="Group 2">
      <path id="Path_2" data-name="Path 2" d="M318.5,139.247a83,83,0,0,1,12.639-99.663c-47.729,33.264-94.925,32.769-135.319-.3a83.015,83.015,0,1,0-16.313,130.081c5.961-3.543,15.3-8.1,21.046-11.421,46.607-27.811,86.555-32.345,130.162-1.259,4.719,3.278,9.715,6.476,14.867,9.421C334.748,159.431,325.386,151.153,318.5,139.247Z" transform="translate(-53.944 -14.969)" fill="#65c1bc"/>
    </g>
  </g>
  <path id="Path_3" data-name="Path 3" d="M231.6,181.152a82.911,82.911,0,0,0,58.771-24.315c15.04-15.022,23.434-35.753,23.434-58.677a90.5,90.5,0,0,0-.989-13.422A94.988,94.988,0,0,0,309.6,71.025a81.107,81.107,0,0,0-5.128-12.3q-.521-.97-1.07-1.905a86.669,86.669,0,0,0-17.557-21.6A83.194,83.194,0,0,0,250.7,17.038,81.269,81.269,0,0,0,191.035,26c-.148.085-.3.172-.446.26a87.4,87.4,0,0,0-17.151,13.35l-.186.127A83,83,0,0,0,160.614,139.4c6.882,11.906,16.244,20.184,27.081,26.859C202.007,174.435,217.517,180.649,231.6,181.152Z" transform="translate(216.77 -14.878)" fill="#00a481"/>
  <g id="Group_4" data-name="Group 4" transform="translate(404.466 94.158)">
    <path id="Path_4" data-name="Path 4" d="M406.962,216.119a82.675,82.675,0,0,0-31.315-30.908c-6.052-3.384-14.666-9.185-20.422-12.494-47.419-26.412-69.033-58.8-66.175-111.964l.287-10.343a80.486,80.486,0,0,1-22.789,47.8,82.911,82.911,0,0,1-58.771,24.316c-14.079-.5-29.588-6.718-43.9-14.9a190.883,190.883,0,0,0,23.383,11.821c52.849,24.644,77.307,74.452,67.449,116.689a83.105,83.105,0,1,0,152.255-20.023Z" transform="translate(-163.875 -50.41)" fill="#69bb8f"/>
  </g>
  <g id="Group_5" data-name="Group 5" transform="translate(254.235 423.32)">
    <path id="Path_5" data-name="Path 5" d="M134.329,216.379a83.01,83.01,0,0,1-12.639,99.663c47.726-33.262,94.925-32.769,135.318.3a83.013,83.013,0,1,0,16.311-130.08c-5.958,3.543-15.295,8.092-21.043,11.418-46.607,27.81-86.557,32.344-130.164,1.261-4.72-3.281-9.715-6.477-14.865-9.42C118.086,196.2,127.448,204.474,134.329,216.379Z" transform="translate(-107.248 -174.627)" fill="#00a9e7"/>
  </g>
  <path id="Path_6" data-name="Path 6" d="M141.915,174.627a82.889,82.889,0,0,0-58.768,24.315c-15.039,15.022-23.433,35.752-23.433,58.677a90.82,90.82,0,0,0,.987,13.419,94.986,94.986,0,0,0,3.215,13.716,80.819,80.819,0,0,0,5.128,12.3c.348.647.7,1.284,1.066,1.9a86.778,86.778,0,0,0,17.557,21.6,83.234,83.234,0,0,0,35.144,18.189,81.277,81.277,0,0,0,59.667-8.958c.149-.085.3-.175.446-.26a87.541,87.541,0,0,0,17.151-13.354l.186-.127A83.012,83.012,0,0,0,212.9,216.379c-6.882-11.9-16.244-20.182-27.081-26.857C171.5,181.341,156,175.131,141.915,174.627Z" transform="translate(68.416 248.694)" fill="#0084ca"/>
  <g id="Group_6" data-name="Group 6" transform="translate(0 205.191)">
    <path id="Path_7" data-name="Path 7" d="M22.563,216.848a82.691,82.691,0,0,0,31.318,30.911c6.051,3.382,14.666,9.182,20.422,12.494,47.416,26.412,69.032,58.8,66.175,111.964l-.286,10.342a80.452,80.452,0,0,1,22.789-47.8,82.889,82.889,0,0,1,58.768-24.316c14.082.5,29.588,6.715,43.9,14.9a190.91,190.91,0,0,0-23.386-11.822c-52.847-24.644-77.307-74.455-67.449-116.689A83.1,83.1,0,1,0,22.563,216.848Z" transform="translate(-11.416 -92.31)" fill="#6296d0"/>
  </g>
</svg>
